<?xml version="1.0" encoding="UTF-8" standalone="no"?>
<!-- Created with Inkscape (http://www.inkscape.org/) -->

<svg
   xmlns:dc="http://purl.org/dc/elements/1.1/"
   xmlns:cc="http://creativecommons.org/ns#"
   xmlns:rdf="http://www.w3.org/1999/02/22-rdf-syntax-ns#"
   xmlns:svg="http://www.w3.org/2000/svg"
   xmlns="http://www.w3.org/2000/svg"
   xmlns:sodipodi="http://sodipodi.sourceforge.net/DTD/sodipodi-0.dtd"
   xmlns:inkscape="http://www.inkscape.org/namespaces/inkscape"
   width="63.178265mm"
   height="63.178299mm"
   viewBox="0 0 63.178265 63.178299"
   version="1.1"
   id="svg8"
   inkscape:version="0.92.4 (5da689c313, 2019-01-14)"
   sodipodi:docname="0003.svg">
  <defs
     id="defs2">
    <clipPath
       id="clipPath1348"
       clipPathUnits="userSpaceOnUse">
      <path
         inkscape:connector-curvature="0"
         id="path1346"
         d="M 285.456,57.797 H 464.544 V 236.884 H 285.456 Z" />
    </clipPath>
    <linearGradient
       id="linearGradient1358"
       spreadMethod="pad"
       gradientTransform="matrix(-129.51483,-154.45267,-154.45267,129.51483,441.40292,226.52946)"
       gradientUnits="userSpaceOnUse"
       y2="0"
       x2="1"
       y1="0"
       x1="0">
      <stop
         id="stop1354"
         offset="0"
         style="stop-opacity:1;stop-color:#00c2ff" />
      <stop
         id="stop1356"
         offset="1"
         style="stop-opacity:1;stop-color:#006fca" />
    </linearGradient>
    <clipPath
       id="clipPath1368"
       clipPathUnits="userSpaceOnUse">
      <path
         inkscape:connector-curvature="0"
         id="path1366"
         d="M 0,500 H 750 V 0 H 0 Z" />
    </clipPath>
    <clipPath
       id="clipPath1402"
       clipPathUnits="userSpaceOnUse">
      <path
         inkscape:connector-curvature="0"
         id="path1400"
         d="M 0,500 H 750 V 0 H 0 Z" />
    </clipPath>
    <clipPath
       id="clipPath1416"
       clipPathUnits="userSpaceOnUse">
      <path
         inkscape:connector-curvature="0"
         id="path1414"
         d="M 0,500 H 750 V 0 H 0 Z" />
    </clipPath>
    <clipPath
       id="clipPath1444"
       clipPathUnits="userSpaceOnUse">
      <path
         inkscape:connector-curvature="0"
         id="path1442"
         d="M 285.456,57.797 H 464.544 V 236.884 H 285.456 Z" />
    </clipPath>
  </defs>
  <sodipodi:namedview
     id="base"
     pagecolor="#ffffff"
     bordercolor="#666666"
     borderopacity="1.0"
     inkscape:pageopacity="0.0"
     inkscape:pageshadow="2"
     inkscape:zoom="1.734"
     inkscape:cx="124.28571"
     inkscape:cy="87.142857"
     inkscape:document-units="mm"
     inkscape:current-layer="layer1"
     showgrid="false"
     inkscape:window-width="1920"
     inkscape:window-height="1054"
     inkscape:window-x="0"
     inkscape:window-y="0"
     inkscape:window-maximized="1" />
  <metadata
     id="metadata5">
    <rdf:RDF>
      <cc:Work
         rdf:about="">
        <dc:format>image/svg+xml</dc:format>
        <dc:type
           rdf:resource="http://purl.org/dc/dcmitype/StillImage" />
        <dc:title />
      </cc:Work>
    </rdf:RDF>
  </metadata>
  <g
     inkscape:label="Camada 1"
     inkscape:groupmode="layer"
     id="layer1"
     transform="translate(-68.196582,-166.38109)">
    <g
       id="g1342"
       transform="matrix(0.35277777,0,0,-0.35277777,-32.505949,249.94885)">
      <g
         id="g1344"
         clip-path="url(#clipPath1348)">
        <g
           id="g1350">
          <g
             id="g1352">
            <path
               d="M 285.456,57.797 H 464.544 V 236.884 H 285.456 Z"
               style="fill:url(#linearGradient1358);stroke:none"
               id="path1360"
               inkscape:connector-curvature="0" />
          </g>
        </g>
      </g>
    </g>
    <g
       id="g1362"
       transform="matrix(0.35277777,0,0,-0.35277777,-32.505949,249.94885)">
      <g
         id="g1364"
         clip-path="url(#clipPath1368)">
        <path
           d="M 460.01,62.331 H 289.99 v 170.02 h 170.02 z"
           style="fill:none;stroke:#ffffff;stroke-width:1;stroke-linecap:butt;stroke-linejoin:miter;stroke-miterlimit:10;stroke-dasharray:none;stroke-opacity:1"
           id="path1370"
           inkscape:connector-curvature="0" />
        <path
           d="m 405.37,200.561 h -60.74 v 36.324 h 60.74 z"
           style="fill:#ffffff;fill-opacity:1;fill-rule:nonzero;stroke:none"
           id="path1372"
           inkscape:connector-curvature="0" />
        <g
           id="g1374"
           transform="translate(403.2148,236.8848)">
          <path
             d="M 0,0 V -33.746 H -56.43 V 0"
             style="fill:none;stroke:#00439a;stroke-width:0.5;stroke-linecap:butt;stroke-linejoin:miter;stroke-miterlimit:10;stroke-dasharray:none;stroke-opacity:1"
             id="path1376"
             inkscape:connector-curvature="0" />
        </g>
        <path
           d="M 405.37,94.121 H 344.63 V 57.797 h 60.74 z"
           style="fill:#ffffff;fill-opacity:1;fill-rule:nonzero;stroke:none"
           id="path1378"
           inkscape:connector-curvature="0" />
        <g
           id="g1380"
           transform="translate(403.2148,57.7969)">
          <path
             d="M 0,0 V 33.746 H -56.43 V 0"
             style="fill:none;stroke:#00439a;stroke-width:0.5;stroke-linecap:butt;stroke-linejoin:miter;stroke-miterlimit:10;stroke-dasharray:none;stroke-opacity:1"
             id="path1382"
             inkscape:connector-curvature="0" />
        </g>
      </g>
    </g>
    <text
       style="font-variant:normal;font-weight:900;font-stretch:normal;font-size:9.54955292px;font-family:'Poppins Black';-inkscape-font-specification:Poppins-Black;writing-mode:lr-tb;fill:#ffffff;fill-opacity:1;fill-rule:nonzero;stroke:none;stroke-width:0.35277778"
       id="text1388"
       x="77.448921"
       y="195.28241">
      <tspan
         x="77.448921 82.939919 86.01487 93.453972 100.83578"
         y="195.28241"
         sodipodi:role="line"
         id="tspan1384"
         style="stroke-width:0.35277778">FINAL</tspan>
      <tspan
         x="82.175941 88.144417 95.526222 100.3583"
         y="203.53322"
         sodipodi:role="line"
         id="tspan1386"
         style="stroke-width:0.35277778">SALE</tspan>
    </text>
    <text
       style="font-variant:normal;font-weight:900;font-stretch:normal;font-size:2.59206986px;font-family:'Poppins Black';-inkscape-font-specification:Poppins-Black;writing-mode:lr-tb;fill:#00439a;fill-opacity:1;fill-rule:nonzero;stroke:none;stroke-width:0.35277778"
       id="text1394"
       x="94.647377"
       y="173.72441">
      <tspan
         x="94.647377 96.689919 98.709145 100.02073 100.85537 102.8746"
         y="173.72441"
         sodipodi:role="line"
         id="tspan1390"
         style="stroke-width:0.35277778">ONLINE</tspan>
      <tspan
         x="95.847496 97.890053 99.909279 101.22086"
         y="176.00024"
         sodipodi:role="line"
         id="tspan1392"
         style="stroke-width:0.35277778">ONLY</tspan>
    </text>
    <g
       id="g1396"
       transform="matrix(0.35277777,0,0,-0.35277777,-32.505949,249.94885)">
      <g
         id="g1398"
         clip-path="url(#clipPath1402)">
        <path
           d="m 403.182,107.771 h -56.484 v 14.301 h 56.484 z"
           style="fill:#ffffff;fill-opacity:1;fill-rule:nonzero;stroke:none"
           id="path1404"
           inkscape:connector-curvature="0" />
      </g>
    </g>
    <text
       style="font-variant:normal;font-weight:900;font-stretch:normal;font-size:2.59206986px;font-family:'Poppins Black';-inkscape-font-specification:Poppins-Black;writing-mode:lr-tb;fill:#00439a;fill-opacity:1;fill-rule:nonzero;stroke:none;stroke-width:0.35277778"
       id="text1408"
       x="92.147575"
       y="210.33162">
      <tspan
         x="92.147575 93.88427 95.325462 97.329124 99.255043 99.695686 102.16074 104.2033 105.93998"
         y="210.33162"
         sodipodi:role="line"
         id="tspan1406"
         style="stroke-width:0.35277778">READ MORE</tspan>
    </text>
    <g
       id="g1410"
       transform="matrix(0.35277777,0,0,-0.35277777,-32.505949,249.94885)">
      <g
         id="g1412"
         clip-path="url(#clipPath1416)">
        <path
           d="m 434.846,131.413 h -40.659 v 43.004 h 40.659 z"
           style="fill:#ffffff;fill-opacity:1;fill-rule:nonzero;stroke:none"
           id="path1418"
           inkscape:connector-curvature="0" />
        <path
           d="m 433.309,133.038 h -37.585 v 39.754 h 37.585 z"
           style="fill:none;stroke:#00439a;stroke-width:0.25;stroke-linecap:butt;stroke-linejoin:miter;stroke-miterlimit:10;stroke-dasharray:none;stroke-opacity:1"
           id="path1420"
           inkscape:connector-curvature="0" />
      </g>
    </g>
    <text
       style="font-variant:normal;font-weight:900;font-stretch:normal;font-size:4.87814045px;font-family:'Poppins Black';-inkscape-font-specification:Poppins-Black;writing-mode:lr-tb;fill:#00439a;fill-opacity:1;fill-rule:nonzero;stroke:none;stroke-width:0.35277778"
       id="text1424"
       x="108.26202"
       y="195.56854">
      <tspan
         x="108.26202 111.48158 114.71091"
         y="195.56854"
         sodipodi:role="line"
         id="tspan1422"
         style="stroke-width:0.35277778">50%</tspan>
    </text>
    <text
       style="font-variant:normal;font-weight:900;font-stretch:normal;font-size:5.37188816px;font-family:'Poppins Black';-inkscape-font-specification:Poppins-Black;writing-mode:lr-tb;fill:#00439a;fill-opacity:1;fill-rule:nonzero;stroke:none;stroke-width:0.35277778"
       id="text1428"
       x="108.63097"
       y="199.86697">
      <tspan
         x="108.63097 112.86402 115.95286"
         y="199.86697"
         sodipodi:role="line"
         id="tspan1426"
         style="stroke-width:0.35277778">OFF</tspan>
    </text>
    <text
       style="font-variant:normal;font-weight:900;font-stretch:normal;font-size:3.67996621px;font-family:'Poppins Black';-inkscape-font-specification:Poppins-Black;writing-mode:lr-tb;fill:#00439a;fill-opacity:1;fill-rule:nonzero;stroke:none;stroke-width:0.35277778"
       id="text1432"
       x="94.580864"
       y="222.44252">
      <tspan
         x="94.580864 96.880852 99.659218 102.55903"
         y="222.44252"
         sodipodi:role="line"
         id="tspan1430"
         style="stroke-width:0.35277778">SHOP</tspan>
    </text>
    <text
       style="font-variant:normal;font-weight:900;font-stretch:normal;font-size:3.84975791px;font-family:'Poppins Black';-inkscape-font-specification:Poppins-Black;writing-mode:lr-tb;fill:#00439a;fill-opacity:1;fill-rule:nonzero;stroke:none;stroke-width:0.35277778"
       id="text1436"
       x="94.622887"
       y="226.00166">
      <tspan
         x="94.622887 97.621834 100.65545"
         y="226.00166"
         sodipodi:role="line"
         id="tspan1434"
         style="stroke-width:0.35277778">NOW</tspan>
    </text>
    <g
       id="g1438"
       transform="matrix(0.35277777,0,0,-0.35277777,-32.505949,249.94885)">
      <g
         id="g1440"
         clip-path="url(#clipPath1444)">
        <g
           id="g1446"
           transform="translate(452.085,229.3623)">
          <path
             d="m 0,0 c 0,-9.494 -7.696,-17.19 -17.19,-17.19 -9.495,0 -17.191,7.696 -17.191,17.19 0,9.493 7.696,17.189 17.191,17.189 C -7.696,17.189 0,9.493 0,0"
             style="fill:#ffffff;fill-opacity:1;fill-rule:nonzero;stroke:none"
             id="path1448"
             inkscape:connector-curvature="0" />
        </g>
        <g
           id="g1450"
           transform="translate(451.9248,204.6113)">
          <path
             d="m 0,0 c 0,-2.759 -2.236,-4.995 -4.996,-4.995 -2.759,0 -4.995,2.236 -4.995,4.995 0,2.759 2.236,4.996 4.995,4.996 C -2.236,4.996 0,2.759 0,0"
             style="fill:#ffffff;fill-opacity:1;fill-rule:nonzero;stroke:none"
             id="path1452"
             inkscape:connector-curvature="0" />
        </g>
        <g
           id="g1454"
           transform="translate(431.2617,201.6602)">
          <path
             d="m 0,0 c 0,-1.254 -1.017,-2.271 -2.271,-2.271 -1.254,0 -2.271,1.017 -2.271,2.271 0,1.254 1.017,2.271 2.271,2.271 C -1.017,2.271 0,1.254 0,0"
             style="fill:#ffffff;fill-opacity:1;fill-rule:nonzero;stroke:none"
             id="path1456"
             inkscape:connector-curvature="0" />
        </g>
        <g
           id="g1458"
           transform="translate(312.4922,211.3076)">
          <path
             d="m 0,0 c 0,-5.15 -4.175,-9.325 -9.325,-9.325 -5.15,0 -9.325,4.175 -9.325,9.325 0,5.15 4.175,9.325 9.325,9.325 C -4.175,9.325 0,5.15 0,0"
             style="fill:#ffffff;fill-opacity:1;fill-rule:nonzero;stroke:none"
             id="path1460"
             inkscape:connector-curvature="0" />
        </g>
        <g
           id="g1462"
           transform="translate(323.8892,222.9639)">
          <path
             d="m 0,0 c 0,-1.001 -0.812,-1.813 -1.813,-1.813 -1.001,0 -1.813,0.812 -1.813,1.813 0,1.001 0.812,1.813 1.813,1.813 C -0.812,1.813 0,1.001 0,0"
             style="fill:#ffffff;fill-opacity:1;fill-rule:nonzero;stroke:none"
             id="path1464"
             inkscape:connector-curvature="0" />
        </g>
        <g
           id="g1466"
           transform="translate(332.1782,197.8379)">
          <path
             d="m 0,0 c 0,-3.433 -2.783,-6.216 -6.217,-6.216 -3.433,0 -6.216,2.783 -6.216,6.216 0,3.434 2.783,6.217 6.216,6.217 C -2.783,6.217 0,3.434 0,0"
             style="fill:#ffffff;fill-opacity:1;fill-rule:nonzero;stroke:none"
             id="path1468"
             inkscape:connector-curvature="0" />
        </g>
        <g
           id="g1470"
           transform="translate(442.0059,100.7031)">
          <path
             d="m 0,0 c 0,-5.007 -4.06,-9.066 -9.066,-9.066 -5.007,0 -9.066,4.059 -9.066,9.066 0,5.007 4.059,9.066 9.066,9.066 C -4.06,9.066 0,5.007 0,0"
             style="fill:#ffffff;fill-opacity:1;fill-rule:nonzero;stroke:none"
             id="path1472"
             inkscape:connector-curvature="0" />
        </g>
        <g
           id="g1474"
           transform="translate(449.5176,119.6123)">
          <path
             d="m 0,0 c 0,-1.574 -1.275,-2.85 -2.85,-2.85 -1.573,0 -2.848,1.276 -2.848,2.85 0,1.573 1.275,2.849 2.848,2.849 C -1.275,2.849 0,1.573 0,0"
             style="fill:#ffffff;fill-opacity:1;fill-rule:nonzero;stroke:none"
             id="path1476"
             inkscape:connector-curvature="0" />
        </g>
        <g
           id="g1478"
           transform="translate(475.4199,93.1914)">
          <path
             d="m 0,0 c 0,-7.868 -6.378,-14.247 -14.246,-14.247 -7.868,0 -14.247,6.379 -14.247,14.247 0,7.868 6.379,14.246 14.247,14.246 C -6.378,14.246 0,7.868 0,0"
             style="fill:#ffffff;fill-opacity:1;fill-rule:nonzero;stroke:none"
             id="path1480"
             inkscape:connector-curvature="0" />
        </g>
        <g
           id="g1482"
           transform="translate(435.7891,74.8008)">
          <path
             d="m 0,0 c 0,-1.288 -1.044,-2.332 -2.331,-2.332 -1.288,0 -2.331,1.044 -2.331,2.332 0,1.287 1.043,2.331 2.331,2.331 C -1.044,2.331 0,1.287 0,0"
             style="fill:#ffffff;fill-opacity:1;fill-rule:nonzero;stroke:none"
             id="path1484"
             inkscape:connector-curvature="0" />
        </g>
        <g
           id="g1486"
           transform="translate(323.3711,85.6797)">
          <path
             d="m 0,0 c 0,-11.302 -9.162,-20.463 -20.463,-20.463 -11.301,0 -20.463,9.161 -20.463,20.463 0,11.302 9.162,20.463 20.463,20.463 C -9.162,20.463 0,11.302 0,0"
             style="fill:#ffffff;fill-opacity:1;fill-rule:nonzero;stroke:none"
             id="path1488"
             inkscape:connector-curvature="0" />
        </g>
        <g
           id="g1490"
           transform="translate(305.2393,121.4258)">
          <path
             d="m 0,0 c 0,-1.002 -0.812,-1.813 -1.813,-1.813 -1.001,0 -1.813,0.811 -1.813,1.813 0,1.001 0.812,1.812 1.813,1.812 C -0.812,1.812 0,1.001 0,0"
             style="fill:#ffffff;fill-opacity:1;fill-rule:nonzero;stroke:none"
             id="path1492"
             inkscape:connector-curvature="0" />
        </g>
        <g
           id="g1494"
           transform="translate(332.437,108.9922)">
          <path
             d="m 0,0 c 0,-4.578 -3.711,-8.289 -8.289,-8.289 -4.578,0 -8.289,3.711 -8.289,8.289 0,4.577 3.711,8.289 8.289,8.289 C -3.711,8.289 0,4.577 0,0"
             style="fill:#ffffff;fill-opacity:1;fill-rule:nonzero;stroke:none"
             id="path1496"
             inkscape:connector-curvature="0" />
        </g>
      </g>
    </g>
  </g>
</svg>
